<svg width="40" height="40" viewBox="0 0 40 40" fill="none" xmlns="http://www.w3.org/2000/svg">
<path d="M37.0001 29.56C36.9401 29.77 36.8901 29.98 36.8201 30.19C36.3201 31.72 34.9701 32.7 33.3001 32.74C32.9601 32.74 32.6101 32.74 32.2701 32.74C23.8101 32.74 15.3401 32.74 6.88006 32.74C5.10006 32.74 3.70006 31.79 3.20006 30.2C3.08006 29.82 3.02006 29.4 3.01006 29C3.00006 23 3.00006 17.01 3.01006 11.01C3.01006 8.92002 4.56006 7.34002 6.65006 7.27002C6.73006 7.27002 6.80006 7.27002 6.88006 7.27002C15.6301 7.27002 24.3901 7.27002 33.1401 7.27002C34.7801 7.27002 35.9901 7.98002 36.6901 9.48002C36.8301 9.78002 36.9001 10.12 37.0001 10.45V29.57V29.56ZM5.00006 13.34C5.00006 13.44 4.99006 13.48 4.99006 13.53C4.99006 18.7 4.99006 23.86 4.99006 29.03C4.99006 30.05 5.72006 30.74 6.79006 30.74C15.6001 30.74 24.4001 30.74 33.2101 30.74C34.3101 30.74 35.0101 30.03 35.0101 28.93C35.0101 23.84 35.0101 18.75 35.0101 13.66C35.0101 13.57 35.0001 13.47 34.9901 13.35C34.8401 13.45 34.7201 13.53 34.6001 13.61C30.7201 16.2 26.8401 18.79 22.9501 21.37C21.1401 22.57 18.8501 22.57 17.0501 21.37C13.1501 18.77 9.25006 16.17 5.35006 13.57C5.25006 13.5 5.15006 13.44 5.01006 13.36L5.00006 13.34ZM20.0301 9.25002C17.2901 9.25002 14.5401 9.25002 11.8001 9.25002C10.1201 9.25002 8.44006 9.25002 6.75006 9.25002C5.86006 9.25002 5.21006 9.78002 5.02006 10.6C4.97006 10.83 5.02006 10.96 5.22006 11.09C9.55006 13.97 13.8601 16.86 18.2001 19.73C19.3701 20.5 20.6201 20.51 21.7901 19.73C26.1301 16.87 30.4401 13.97 34.7701 11.09C34.9701 10.96 35.0301 10.83 34.9701 10.6C34.7801 9.75002 34.1201 9.25002 33.1701 9.25002C28.7901 9.25002 24.4101 9.25002 20.0201 9.25002H20.0301Z" fill="#024959"/>
</svg>
