<svg width="516" height="516" viewBox="0 0 516 516" fill="none" xmlns="http://www.w3.org/2000/svg">
<path d="M502.081 419.175C487.73 405.604 470.255 406.562 461.475 408.159C458.436 408.717 455.481 406.801 454.975 403.928L395.966 57.6355C395.966 57.6355 389.043 0 341.008 0C306.481 0 284.869 43.506 284.869 43.506L80.996 391.714C78.1257 396.584 72.3007 399.138 66.4758 398.02C34.6496 392.273 -11.0214 419.334 3.92085 469.785C20.3827 525.585 96.8669 516.325 121.349 500.519C165.078 472.18 188.209 415.742 194.456 398.34C195.553 395.226 198.677 393.151 202.223 393.151L359.581 395.386C362.282 395.386 364.561 397.462 364.646 400.016C365.068 409.915 363.464 436.657 377.393 471.063C397.823 521.594 468.566 523.03 494.821 502.914C521.075 482.797 522.173 438.094 502.25 419.175H502.081ZM338.391 292.728H263.933C258.953 292.728 255.66 287.779 257.94 283.548L313.234 178.175C316.02 172.827 324.378 173.944 325.475 179.772L345.651 284.426C346.496 288.736 342.95 292.648 338.391 292.648V292.728Z" fill="#024959"/>
</svg>
