<svg width="40" height="40" viewBox="0 0 40 40" fill="none" xmlns="http://www.w3.org/2000/svg">
<path d="M19.9799 34.56C15.4799 34.56 10.9799 34.56 6.47994 34.56C4.84994 34.56 3.56994 33.58 3.13994 32.02C2.70994 30.48 3.34994 28.83 4.67994 28.02C5.26994 27.66 5.90994 27.54 6.57994 27.54C12.9599 27.54 19.3399 27.54 25.7199 27.54C28.3399 27.54 30.9699 27.54 33.5899 27.54C35.2899 27.54 36.6499 28.74 36.9499 30.45C37.2399 32.13 36.2999 33.81 34.7299 34.35C34.3299 34.49 33.8799 34.54 33.4499 34.54C28.9599 34.55 24.4699 34.54 19.9799 34.54V34.56Z" fill="#D78C04"/>
<path d="M19.9901 12.45C15.5101 12.45 11.0301 12.43 6.56009 12.45C4.55009 12.46 3.32009 11 3.07009 9.60996C2.69009 7.45996 4.2201 5.40996 6.5101 5.41996C11.8201 5.43996 17.1401 5.41996 22.4501 5.41996C26.1501 5.41996 29.8501 5.41996 33.5501 5.41996C35.2001 5.41996 36.5301 6.49996 36.9001 8.08996C37.2701 9.71996 36.5201 11.37 35.0901 12.09C34.5501 12.36 33.9801 12.43 33.3901 12.43C28.9201 12.43 24.4601 12.43 19.9901 12.43V12.45Z" fill="#D78C04"/>
<path d="M19.9901 23.5098C15.4801 23.5098 10.9701 23.5098 6.45012 23.5098C4.70012 23.5098 3.35012 22.3398 3.05012 20.5798C2.77012 18.9298 3.71012 17.2598 5.27012 16.7098C5.64012 16.5798 6.05012 16.5098 6.45012 16.5098C15.4901 16.4998 24.5201 16.5098 33.5601 16.5098C35.3401 16.5098 36.8201 17.8498 36.9801 19.5898C37.1601 21.5198 36.0001 23.1398 34.2201 23.4698C33.9601 23.5198 33.7001 23.5198 33.4301 23.5198C28.9501 23.5198 24.4701 23.5198 20.0001 23.5198L19.9901 23.5098Z" fill="#D78C04"/>
</svg>
