<svg width="149" height="354" viewBox="0 0 149 354" fill="none" xmlns="http://www.w3.org/2000/svg">
<path d="M258.821 293.762C258.534 285.262 257.713 276.762 256.154 268.331C254.555 259.727 250.453 251.781 243.644 245.189C240.649 242.275 236.753 239.777 232.815 237.834C228.877 235.891 224.488 234.365 220.099 233.324C212.347 231.415 203.856 230.791 195.775 231.173C186.464 231.624 177.07 232.907 168.046 234.954C158.899 237.036 150.121 239.95 141.425 243.073C132.934 246.126 124.69 249.596 116.486 253.204C109.677 256.222 102.991 259.622 96.0176 262.398C96.92 258.998 98.1096 255.633 99.5863 252.371C102.704 246.577 106.641 241.13 111.112 235.995C121.449 224.962 133.796 215.421 146.183 206.088C152.746 201.127 159.35 196.235 165.79 191.135C168.949 188.637 172.107 186.104 175.143 183.502C179.285 179.998 183.592 176.355 186.669 172.087C191.837 164.94 192.658 155.295 187.243 148.078C182.813 142.18 176.004 138.468 168.169 136.421C162.755 134.998 156.725 134.651 151.065 134.582C145.199 134.513 139.374 135.137 133.55 135.9C123.336 137.253 113.738 140.376 104.344 143.88C95.8536 147.037 87.8139 150.923 79.9383 155.052C70.7912 159.84 61.9311 164.94 52.907 169.832C48.9282 171.983 44.9494 174.204 40.8475 176.285C41.0526 175.869 41.2167 175.453 41.4218 175.071C47.0003 164.211 54.4657 154.15 62.9156 144.748C74.0726 132.778 86.5833 121.745 99.135 110.816C112.343 99.3319 125.715 87.9173 137.816 75.5659C144.666 68.5922 151.27 61.341 157.135 53.7428C159.843 50.2733 162.632 46.6998 164.642 42.918C166.939 38.5811 168.826 34.2443 168.457 29.387C168.169 25.1889 166.939 20.8867 164.15 17.3479C156.397 7.4945 143.271 3.67806 129.981 2.11679C118.127 0.728996 106.272 0.208572 94.2538 1.49228C82.3584 2.7413 70.8322 4.75361 59.6341 8.46596C48.477 12.1783 37.8122 16.6193 28.1318 22.6562C24.9323 24.6338 21.8149 26.6808 18.7795 28.8319C15.416 31.1911 13.5291 36.0484 13.5291 39.5873C13.5291 43.3343 15.498 47.7753 18.7795 50.3427C22.2251 53.0142 26.6961 54.9918 31.4953 54.7837C33.095 54.6102 34.6947 54.4367 36.2945 54.2285C39.3299 53.5 41.9961 52.2162 44.2111 50.308C44.7853 49.9264 45.3186 49.5447 45.8928 49.1631C52.907 44.7915 60.4134 41.1139 68.3711 38.0954C77.1491 35.1464 86.2552 33.03 95.6074 31.8156C104.837 30.9483 114.107 30.9483 123.336 31.8156C125.674 32.1279 128.012 32.4748 130.309 32.9953C128.71 35.2504 126.987 37.4362 125.305 39.5526C122.885 42.6058 120.342 45.5895 117.758 48.5386C105.493 61.7574 91.6697 73.8312 77.8054 85.8703C63.6129 98.187 49.2974 110.504 36.7867 124.104C29.8956 131.598 23.2916 139.196 17.754 147.454C12.2575 155.642 7.62243 164.385 4.17687 173.336C2.12593 178.61 0.362131 184.126 0.0339814 189.677C-0.581298 199.912 7.21225 209.731 19.0666 212.437C33.9564 215.803 48.354 207.962 60.6185 201.717C79.6512 192.002 97.4533 180.483 117.511 172.191C119.234 171.497 120.957 170.803 122.68 170.179C129.161 167.993 135.847 166.293 142.738 165.356C143.886 165.252 145.076 165.183 146.265 165.148C144.215 166.779 142.164 168.375 140.113 169.971C134.206 174.62 128.135 179.13 122.147 183.675C110.333 192.592 98.4788 201.613 88.3061 211.917C76.8619 223.47 67.2635 236.238 62.4644 250.914C61.0697 255.216 60.2904 259.588 59.6341 264.029C58.7317 270.066 59.7571 276.103 63.0386 281.55C66.4842 287.344 73.1702 291.507 80.4305 293.381C86.6244 294.977 93.2694 294.526 99.5042 293.415C110.251 291.507 120.096 286.025 129.694 281.723C138.841 277.629 148.029 273.639 157.505 270.135C168.251 266.423 179.409 263.439 190.894 261.947C195.816 261.496 200.779 261.357 205.702 261.704C208.204 262.086 210.624 262.606 213.003 263.3C214.069 263.751 215.095 264.237 216.079 264.792C216.653 265.243 217.228 265.729 217.761 266.214C218.294 266.943 218.827 267.706 219.279 268.47C220.304 271.037 221.001 273.674 221.535 276.345C223.914 293.172 223.545 310.346 221.084 327.139C220.673 329.463 220.263 331.823 219.771 334.147C218.91 338.276 218.992 342.127 221.576 345.874C223.75 349.031 228.016 352.05 232.323 352.848C236.917 353.75 242.085 353.542 246.187 351.321C249.92 349.309 253.652 346.082 254.432 342.231C257.754 326.237 259.436 309.999 258.903 293.728L258.821 293.762Z" fill="#EFE775"/>
</svg>
