<svg width="151" height="117" viewBox="0 0 151 117" fill="none" xmlns="http://www.w3.org/2000/svg">
<path d="M-53.3174 82.5581C-48.4569 84.6929 -43.4834 86.6056 -38.3925 88.1926C-33.195 89.8086 -27.8391 90.2079 -22.6732 89.1213C-20.3927 88.6476 -18.156 87.6877 -16.224 86.5636C-14.292 85.4394 -12.4995 84.017 -10.9812 82.4658C-8.2599 79.7442 -6.10696 76.3749 -4.60909 72.9094C-2.88949 68.9132 -1.62265 64.6621 -0.865071 60.3622C-0.100983 56.0018 0.114666 51.5744 0.195363 47.1258C0.271766 42.7811 0.0608904 38.4284 -0.237032 34.056C-0.49763 30.4207 -0.999818 26.7353 -1.0885 23.0961C0.639991 24.3735 2.28804 25.7613 3.81641 27.241C6.42696 30.0755 8.66767 33.1595 10.619 36.3828C14.657 43.6123 17.4264 51.2829 20.0696 58.9154C21.4794 62.9636 22.8414 67.0105 24.3556 71.0442C25.0964 73.0216 25.8568 75.0083 26.6825 76.9621C27.7827 79.6163 28.9264 82.3755 30.6837 84.7881C33.6234 88.8353 38.8956 91.7349 44.1184 91.3945C48.388 91.1144 51.9279 89.2641 54.7449 86.5452C56.6961 84.6682 58.1705 82.2499 59.4099 79.9116C60.6928 77.488 61.5752 74.8973 62.3792 72.2699C63.7808 67.6588 64.0528 62.8346 64.0659 57.9945C64.0835 53.6222 63.5941 49.2445 62.9327 44.8707C62.1688 39.7927 61.1677 34.7513 60.3188 29.6969C59.9479 27.47 59.5378 25.2246 59.2321 22.9648C59.4237 23.1606 59.624 23.3393 59.796 23.5259C64.7449 28.7284 68.8431 34.5049 72.3604 40.5164C76.7533 48.3359 80.3303 56.4705 83.8399 64.5946C87.5237 73.1392 91.1336 81.7336 95.542 90.0471C98.0271 94.7485 100.721 99.421 103.768 103.878C105.153 105.925 106.579 108.034 108.288 109.874C110.25 111.981 112.299 113.916 115.12 115.051C117.551 116.045 120.241 116.673 122.831 116.451C130.038 115.836 134.976 111.384 138.675 106.265C141.973 101.697 144.78 96.8999 146.603 91.5558C148.42 86.2721 149.728 80.9397 150.006 75.2931C150.276 69.6635 150.03 64.0456 148.673 58.4143C148.235 56.5578 147.74 54.717 147.169 52.8828C146.55 50.8568 144.208 48.783 142.21 47.8445C140.094 46.8508 137.169 46.4927 135.023 47.178C132.784 47.904 130.72 49.2409 129.82 51.2942C129.579 52.0062 129.337 52.7182 129.116 53.4395C128.883 54.8964 129.043 56.3469 129.651 57.7752C129.744 58.1155 129.847 58.4387 129.941 58.779C130.922 62.8586 131.407 66.9591 131.424 71.0726C131.228 75.5093 130.492 79.8617 129.195 84.0774C127.727 88.1498 125.762 92.0093 123.315 95.6217C122.643 96.5123 121.952 97.3937 121.171 98.212C120.236 96.9479 119.368 95.651 118.529 94.3895C117.318 92.5722 116.173 90.7221 115.056 88.8641C110.192 80.2523 106.306 71.2951 102.448 62.3301C98.5025 53.1549 94.5834 43.9284 89.5567 35.1129C86.7864 30.2564 83.8964 25.4919 80.408 20.9965C76.9502 16.5366 72.9963 12.2882 68.6726 8.47971C66.1297 6.22724 63.3889 4.0299 60.324 2.42106C54.6754 -0.54949 47.4789 0.0912299 43.4374 4.30888C38.38 9.61543 39.7547 17.6891 40.6804 24.4515C42.1301 34.9517 44.8594 45.4181 45.2885 55.9681C45.315 56.8694 45.3416 57.7706 45.3289 58.6535C45.1889 61.9314 44.7312 65.1659 43.799 68.2833C43.6142 68.7891 43.4012 69.3027 43.1686 69.8072C42.6827 68.5208 42.2164 67.2437 41.7501 65.9666C40.3774 62.2745 39.1179 58.5509 37.8214 54.8522C35.2915 47.5692 32.7116 40.2415 29.0503 33.2735C24.9533 25.4449 19.7793 18.0627 12.5102 12.1724C10.3767 10.4508 8.07363 8.967 5.70525 7.516C2.4879 5.53926 -1.13822 4.36516 -4.90966 4.28674C-8.91178 4.18461 -12.6802 5.86407 -15.2775 8.38989C-17.492 10.5453 -18.6463 13.4314 -19.3413 16.3217C-20.5426 21.302 -19.5347 26.8544 -19.1407 31.9914C-18.7685 36.8854 -18.4638 41.7689 -18.4943 46.6431C-18.6768 52.1019 -19.3577 57.5383 -20.9506 62.7156C-21.7396 64.8845 -22.7136 66.9877 -23.9532 68.9449C-24.6992 69.8854 -25.5062 70.755 -26.4024 71.5615C-26.8832 71.8858 -27.3749 72.184 -27.8971 72.4466C-28.2735 72.5661 -28.6696 72.6763 -29.0569 72.7695C-29.5813 72.7983 -30.1254 72.8179 -30.652 72.8033C-32.3191 72.5493 -33.9558 72.1403 -35.5773 71.6538C-45.583 68.1817 -55.2018 63.4733 -64.1617 57.9952C-65.3872 57.208 -66.6324 56.4115 -67.8405 55.5901C-69.9891 54.1365 -72.181 53.1493 -74.8447 53.2314C-77.0884 53.2992 -79.6972 54.2747 -81.061 55.8562C-82.5444 57.5297 -83.5227 59.7366 -83.1387 62.0332C-82.7939 64.121 -81.7635 66.5307 -79.7542 67.8765C-71.4276 73.5016 -62.616 78.508 -53.3152 82.6014L-53.3174 82.5581Z" fill="#EFE775"/>
</svg>
