<svg width="180" height="238" viewBox="0 0 180 238" fill="none" xmlns="http://www.w3.org/2000/svg">
<g clip-path="url(#clip0_1_507)">
<path d="M-32.646 65.5349C-13.8069 66.3887 6.86694 67.3018 22.5538 79.0605C29.6467 84.368 35.5926 91.7789 37.9364 100.417C39.0802 104.594 39.5296 109.285 38.4588 113.531C37.4729 117.422 34.7307 121.147 30.3545 121.258C28.5472 121.295 26.7766 120.624 25.7234 119.094C24.5892 117.45 24.521 115.236 25.0502 113.361C26.3986 108.571 31.434 106.318 35.8144 104.959C44.4429 102.285 53.531 101.156 62.5449 101.357C80.8919 101.774 98.8269 107.545 114.558 116.832C132.055 127.171 146.848 141.526 159.433 157.35C160.987 159.291 162.488 161.258 163.98 163.253C164.781 164.334 166.316 162.899 165.525 161.836C159.15 153.287 152.221 145.134 144.609 137.644C137.005 130.172 128.726 123.336 119.759 117.589C111.389 112.225 102.419 107.815 92.983 104.669C83.5475 101.523 74.5083 99.798 64.9866 99.3457C55.465 98.8933 45.8966 99.8678 36.7537 102.494C32.0541 103.84 26.6343 105.778 24.0779 110.298C21.9992 113.927 22.0017 119.091 25.5048 121.834C28.7755 124.385 33.7009 123.435 36.6237 120.842C40.1171 117.756 41.1259 112.695 41.1043 108.231C41.0465 98.7523 36.6091 89.8984 30.1911 83.0863C23.4416 75.9323 14.7596 71.1741 5.41602 68.3367C-4.39868 65.3628 -14.7059 64.3788 -24.9202 63.7924C-27.4557 63.67 -29.9913 63.5476 -32.5445 63.4342C-33.8831 63.387 -33.9935 65.4701 -32.646 65.5349Z" fill="#587F8C"/>
<path d="M172.448 176.828C176.39 174.802 177.944 169.966 175.92 166.026C173.895 162.085 169.058 160.532 165.116 162.558C161.174 164.583 159.619 169.419 161.644 173.36C163.668 177.3 168.505 178.853 172.448 176.828Z" fill="#587F8C"/>
</g>
<defs>
<clipPath id="clip0_1_507">
<rect width="140.108" height="194.676" fill="white" transform="translate(-34 64.0259) rotate(-27.1921)"/>
</clipPath>
</defs>
</svg>
