<svg width="40" height="40" viewBox="0 0 40 40" fill="none" xmlns="http://www.w3.org/2000/svg">
<path d="M19.7401 37C19.4801 36.79 19.1901 36.6 18.9601 36.36C16.2001 33.38 13.6501 30.24 11.5401 26.76C9.96007 24.16 8.67007 21.44 7.97007 18.47C7.44007 16.18 7.30007 13.88 7.91007 11.58C8.78007 8.27003 10.8101 5.85003 13.8901 4.44003C18.4401 2.36003 22.9801 2.51003 27.3001 5.09003C30.3601 6.92003 32.0201 9.75003 32.4001 13.3C32.7001 16.06 32.1401 18.71 31.1701 21.28C29.8401 24.82 27.8901 28 25.5701 30.96C24.0801 32.87 22.4501 34.69 20.8801 36.53C20.7201 36.72 20.4701 36.84 20.2601 37H19.7301H19.7401ZM20.0301 34.39C20.0901 34.3 20.1201 34.25 20.1701 34.2C21.2801 32.87 22.4301 31.57 23.5001 30.21C25.6701 27.45 27.5701 24.52 28.9101 21.26C29.7701 19.16 30.3601 17 30.3701 14.71C30.3801 10.69 28.2701 7.51003 24.5301 6.04003C21.8901 5.00003 19.2001 4.91003 16.4801 5.69003C12.0901 6.96003 9.57007 10.37 9.64007 14.93C9.67007 17.14 10.2601 19.22 11.0901 21.25C12.0201 23.53 13.2501 25.64 14.6401 27.67C16.2501 30.03 18.0601 32.23 20.0201 34.4L20.0301 34.39Z" fill="#024959"/>
<path d="M14.1501 15.55C14.1501 12.32 16.7901 9.68998 20.0101 9.69998C23.2401 9.69998 25.8601 12.34 25.8501 15.57C25.8501 18.82 23.2101 21.43 19.9501 21.42C16.7401 21.41 14.1301 18.77 14.1401 15.55H14.1501ZM23.7301 15.55C23.7301 13.49 22.0501 11.82 20.0001 11.81C17.9501 11.81 16.2701 13.48 16.2701 15.54C16.2701 17.61 17.9401 19.29 20.0101 19.29C22.0601 19.29 23.7301 17.6 23.7301 15.55Z" fill="#024959"/>
</svg>
